<svg width="86" height="430" viewBox="0 0 86 430" fill="none" xmlns="http://www.w3.org/2000/svg">
<path d="M84.2651 87.2089L84.2651 170.274C73.3023 170.156 62.6335 167.943 52.5818 163.694C42.6183 159.474 33.6835 153.425 26.0125 145.694C18.3415 137.992 12.3164 129.022 8.08412 119.019C3.82245 108.927 1.61814 98.2449 1.52997 87.2088L84.2651 87.2089ZM-0.20409 86.3531C-0.204092 97.9203 2.059 109.133 6.49701 119.697C10.7881 129.907 16.9601 139.055 24.7781 146.933C32.6255 154.812 41.7366 160.979 51.9058 165.287C62.4277 169.743 73.5963 172.015 85.1175 172.015L85.9698 172.015L85.9698 85.4679L-0.20409 85.4679L-0.20409 86.3236L-0.20409 86.3531Z" fill="white"/>
<path d="M1.53077 173.676L84.2659 173.676C84.1484 184.683 81.9441 195.394 77.7118 205.486C73.5089 215.489 67.4838 224.46 59.7834 232.161C52.1124 239.863 43.1776 245.912 33.2141 250.161C23.1624 254.44 12.5229 256.653 1.53077 256.741L1.53077 173.676ZM0.678436 258.482C12.1996 258.482 23.3682 256.21 33.8901 251.755C44.0593 247.446 53.1704 241.25 61.0178 233.401C68.8652 225.522 75.0078 216.374 79.2989 206.165C83.7369 195.601 86 184.388 86 172.82L86 171.965L-0.203282 171.965L-0.203285 258.482L0.649048 258.482L0.678436 258.482Z" fill="white"/>
<path d="M1.51612 343.288L1.51612 260.223C12.4789 260.341 23.1478 262.554 33.1994 266.803C43.1629 271.023 52.0977 277.072 59.7687 284.803C67.4397 292.505 73.4649 301.475 77.6971 311.478C81.9588 321.57 84.1631 332.252 84.2513 343.288L1.51612 343.288ZM85.9853 344.144C85.9853 332.577 83.7223 321.364 79.2842 310.8C74.9932 300.59 68.8211 291.442 61.0031 283.564C53.1558 275.685 44.0446 269.518 33.8754 265.21C23.3535 260.754 12.185 258.482 0.663788 258.482L-0.188545 258.482L-0.188549 345.029L85.9853 345.029L85.9853 344.173L85.9853 344.144Z" fill="white"/>
<path d="M1.53028 85.6344L1.53028 2.5691C12.4931 2.68713 23.1619 4.90024 33.2136 9.14941C43.1771 13.3691 52.1119 19.4182 59.7829 27.1494C67.4539 34.851 73.479 43.8214 77.7113 53.8247C81.973 63.9165 84.1773 74.5984 84.2654 85.6344L1.53028 85.6344ZM85.9995 86.4902C85.9995 74.923 83.7364 63.7099 79.2984 53.146C75.0073 42.9362 68.8353 33.7887 61.0173 25.91C53.17 18.0313 44.0588 11.8642 33.8896 7.55597C23.3677 3.10025 12.1992 0.828122 0.677948 0.828122L-0.174385 0.828121L-0.174389 87.3754L85.9995 87.3754L85.9995 86.5197L85.9995 86.4902Z" fill="white"/>
<path d="M84.2793 344.609L84.2793 427.675C73.3165 427.557 62.6476 425.343 52.596 421.094C42.6325 416.875 33.6977 410.825 26.0267 403.094C18.3557 395.393 12.3305 386.422 8.09827 376.419C3.8366 366.327 1.63229 355.645 1.54411 344.609L84.2793 344.609ZM-0.189946 343.754C-0.189945 355.321 2.07315 366.534 6.51116 377.098C10.8022 387.307 16.9743 396.455 24.7923 404.334C32.6396 412.212 41.7508 418.379 51.92 422.688C62.4419 427.143 73.6104 429.416 85.1316 429.416L85.9839 429.416L85.9839 342.868L-0.189946 342.868L-0.189946 343.724L-0.189946 343.754Z" fill="white"/>
</svg>
