<svg width="1440" height="479" viewBox="0 0 1440 479" fill="none" xmlns="http://www.w3.org/2000/svg">
<g clip-path="url(#clip0_2681_15930)">
<g clip-path="url(#clip1_2681_15930)">
<path fill-rule="evenodd" clip-rule="evenodd" d="M159.6 318.001V158.201H319.4C319.4 246.501 247.9 318.001 159.6 318.001Z" fill="#F0FAFA"/>
<path fill-rule="evenodd" clip-rule="evenodd" d="M801.4 319.902C801.4 231.702 872.9 160.102 961.2 160.102V319.902H801.4Z" fill="#F0FAFA"/>
<path fill-rule="evenodd" clip-rule="evenodd" d="M1120.3 160.601C1120.3 72.4008 1048.8 0.800781 960.5 0.800781V160.601H1120.3Z" fill="#F0FAFA"/>
<path fill-rule="evenodd" clip-rule="evenodd" d="M1280.2 319.2C1280.2 231 1208.7 159.4 1120.4 159.4V319.2H1280.2Z" fill="#F0FAFA"/>
<path fill-rule="evenodd" clip-rule="evenodd" d="M1280.2 159.8C1368.4 159.8 1440 88.3 1440 0H1280.2V159.8Z" fill="#F0FAFA"/>
<path d="M960.6 319.902H959.6V320.902H960.6V319.902ZM1120.3 160.102H1121.3V159.102H1120.3V160.102ZM960.6 160.102V159.102H959.6V160.102H960.6ZM960.6 320.902C1049.4 320.902 1121.4 248.902 1121.4 160.102H1119.4C1119.4 247.802 1048.3 318.902 960.6 318.902V320.902ZM959.6 160.102V319.902H961.6V160.102H959.6ZM960.6 161.102H1120.4V159.102H960.6V161.102Z" fill="#E8F8F8"/>
<path fill-rule="evenodd" clip-rule="evenodd" d="M1438 479.2C1438 391 1366.5 319.4 1278.2 319.4V479.2H1438Z" fill="#F0FAFA"/>
<path d="M801.4 319.4H800.4V318.4H801.4V319.4ZM961.2 479.2H962.2V480.2H961.2V479.2ZM801.4 479.2V480.2H800.4V479.2H801.4ZM801.4 318.4C890.2 318.4 962.2 390.4 962.2 479.2H960.2C960.2 391.5 889.1 320.4 801.4 320.4V318.4ZM800.4 479.2V319.4H802.4V479.2H800.4ZM801.4 478.2H961.2V480.2H801.4V478.2Z" fill="#E8F8F8"/>
<path d="M960.7 319.4H959.7V318.4H960.7V319.4ZM1120.5 479.2H1121.5V480.2H1120.5V479.2ZM960.7 479.2V480.2H959.7V479.2H960.7ZM960.7 318.4C1049.5 318.4 1121.5 390.4 1121.5 479.2H1119.5C1119.5 391.5 1048.4 320.4 960.7 320.4V318.4ZM959.7 479.2V319.4H961.7V479.2H959.7ZM960.7 478.2H1120.5V480.2H960.7V478.2Z" fill="#E8F8F8"/>
<path d="M1279.7 319.4H1280.7V318.4H1279.7V319.4ZM1120 479.2H1119V480.2H1120V479.2ZM1279.7 479.2V480.2H1280.7V479.2H1279.7ZM1279.7 318.4C1190.9 318.4 1118.9 390.4 1118.9 479.2H1120.9C1120.9 391.5 1192 320.4 1279.7 320.4V318.4ZM1280.7 479.2V319.4H1278.7V479.2H1280.7ZM1279.7 478.2H1120V480.2H1279.8V478.2H1279.7Z" fill="#E8F8F8"/>
<path d="M1279.7 0.800781H1280.7V-0.199219H1279.7V0.800781ZM1279.7 160.601V161.601H1280.7V160.601H1279.7ZM1120 163.301H1119H1121H1120ZM1279.7 -0.199219C1190.9 -0.199219 1118.9 71.8008 1118.9 160.601H1120.9C1120.9 72.9008 1192 1.80078 1279.7 1.80078V-0.199219ZM1280.7 160.601V0.800781H1278.7V160.601H1280.7ZM1279.7 159.601H1120V161.601H1279.8V159.601H1279.7ZM1119 160.601C1119 160.701 1119 160.701 1119 160.601ZM1119 160.601C1119 161.501 1119 162.401 1119 163.201H1121C1121 162.301 1121 161.501 1121 160.601H1119ZM1119 160.601C1119 161.501 1119 162.401 1119 163.201H1121C1121 162.301 1121 161.501 1121 160.601H1119Z" fill="#E8F8F8"/>
<path d="M1279.2 160.102H1278.2V159.102H1279.2V160.102ZM1439 319.902H1440V320.902H1439V319.902ZM1279.2 319.902V320.902H1278.2V319.902H1279.2ZM1279.2 159.102C1368 159.102 1440 231.102 1440 319.902H1438C1438 232.202 1366.9 161.102 1279.2 161.102V159.102ZM1278.2 319.902V160.102H1280.2V319.902H1278.2ZM1279.2 318.902H1439V320.902H1279.2V318.902Z" fill="#E8F8F8"/>
<path fill-rule="evenodd" clip-rule="evenodd" d="M320.7 319.4C320.7 407.6 392.2 479.2 480.5 479.2V319.4H320.7Z" fill="#F0FAFA"/>
<path d="M320.2 319.4H321.2V318.4H320.2V319.4ZM160.4 479.2H159.4V480.2H160.4V479.2ZM320.2 479.2V480.2H321.2V479.2H320.2ZM320.2 318.4C231.4 318.4 159.4 390.4 159.4 479.2H161.4C161.4 391.5 232.5 320.4 320.2 320.4V318.4ZM321.2 479.2V319.4H319.2V479.2H321.2ZM320.2 478.2H160.4V480.2H320.2V478.2Z" fill="#E8F8F8"/>
<path d="M1 318.302H160.8V317.302H1V318.302ZM1 317.802H0V318.802H1V317.802ZM160.8 317.802V318.802H161.8V317.802H160.8ZM160.8 158.102H161.8V157.102H160.8V158.102ZM2 317.802C2 252.002 42 195.602 99 171.502L98.2 169.702C40.5 194.102 0 251.202 0 317.702L2 317.802ZM0 317.702C0 317.802 0 317.802 0 317.702L2 317.802V317.702H0ZM1 318.802H160.8V316.802H1V318.802ZM161.8 317.802V158.102H159.8V317.902H161.8V317.802ZM144.5 159.902C149.8 159.402 155.3 159.102 160.7 159.102V157.102C155.2 157.102 149.7 157.402 144.3 157.902L144.5 159.902ZM99 171.502C113.2 165.502 128.6 161.502 144.6 159.802L144.4 157.802C128.2 159.402 112.7 163.502 98.3 169.602L99 171.502Z" fill="#E8F8F8"/>
</g>
</g>
<defs>
<clipPath id="clip0_2681_15930">
<rect width="1440" height="479" fill="white"/>
</clipPath>
<clipPath id="clip1_2681_15930">
<rect width="1440" height="480" fill="white"/>
</clipPath>
</defs>
</svg>
